<svg width="20" height="20" viewBox="0 0 20 20" fill="none" xmlns="http://www.w3.org/2000/svg">
<path d="M13.6654 17.5H11.8704L10.2037 13.3334H4.7937L3.12703 17.5H1.33203L6.66536 4.1667H8.33203L13.6654 17.5ZM17.4987 10V17.5H15.832V10H17.4987ZM5.46036 11.6667H9.53703L7.4987 6.57087L5.46036 11.6667ZM16.2729 1.93337C16.3042 1.85483 16.3583 1.78749 16.4283 1.74004C16.4982 1.6926 16.5808 1.66724 16.6654 1.66724C16.7499 1.66724 16.8325 1.6926 16.9025 1.74004C16.9724 1.78749 17.0266 1.85483 17.0579 1.93337L17.2687 2.4417C17.6224 3.30427 18.2935 3.99832 19.1437 4.38087L19.7412 4.64754C19.8177 4.68294 19.8825 4.73949 19.9279 4.81052C19.9733 4.88154 19.9974 4.96408 19.9974 5.04837C19.9974 5.13267 19.9733 5.2152 19.9279 5.28623C19.8825 5.35725 19.8177 5.41381 19.7412 5.4492L19.1095 5.73087C18.28 6.10247 17.62 6.77147 17.2595 7.60587L17.0545 8.07754C17.0225 8.15434 16.9684 8.21995 16.8992 8.2661C16.8299 8.31225 16.7486 8.33687 16.6654 8.33687C16.5821 8.33687 16.5008 8.31225 16.4315 8.2661C16.3623 8.21995 16.3082 8.15434 16.2762 8.07754L16.0704 7.60671C15.7103 6.77214 15.0505 6.10284 14.2212 5.73087L13.5879 5.4492C13.5111 5.41391 13.4461 5.35735 13.4006 5.28623C13.355 5.21511 13.3308 5.13242 13.3308 5.04795C13.3308 4.96349 13.355 4.8808 13.4006 4.80968C13.4461 4.73856 13.5111 4.682 13.5879 4.6467L14.1862 4.38004C15.0364 3.99805 15.7077 3.30463 16.062 2.44254L16.2729 1.93337Z" fill="white"/>
</svg>
