<svg width="12" height="13" viewBox="0 0 12 13" fill="none" xmlns="http://www.w3.org/2000/svg">
<path d="M5.28501 0.295919L0.285014 5.29592C0.193973 5.39102 0.122608 5.50317 0.0750135 5.62592C-0.0250045 5.86938 -0.0250045 6.14246 0.0750135 6.38592C0.122608 6.50867 0.193973 6.62081 0.285014 6.71592L5.28501 11.7159C5.37825 11.8092 5.48894 11.8831 5.61076 11.9336C5.73259 11.984 5.86315 12.01 5.99501 12.01C6.26132 12.01 6.51671 11.9042 6.70501 11.7159C6.89332 11.5276 6.9991 11.2722 6.9991 11.0059C6.9991 10.7396 6.89332 10.4842 6.70501 10.2959L3.40501 7.00592H10.995C11.2602 7.00592 11.5146 6.90056 11.7021 6.71302C11.8897 6.52549 11.995 6.27113 11.995 6.00592C11.995 5.7407 11.8897 5.48635 11.7021 5.29881C11.5146 5.11128 11.2602 5.00592 10.995 5.00592H3.40501L6.70501 1.71592C6.79874 1.62295 6.87314 1.51235 6.9239 1.3905C6.97467 1.26864 7.00081 1.13793 7.00081 1.00592C7.00081 0.873907 6.97467 0.743201 6.9239 0.621342C6.87314 0.499482 6.79874 0.388883 6.70501 0.295919C6.61205 0.202191 6.50145 0.127795 6.37959 0.0770264C6.25773 0.0262575 6.12703 0.000120163 5.99501 0.000120163C5.863 0.000120163 5.7323 0.0262575 5.61044 0.0770264C5.48858 0.127795 5.37798 0.202191 5.28501 0.295919Z" fill="#4443E4"/>
</svg>
