<svg width="19" height="18" viewBox="0 0 19 18" fill="none" xmlns="http://www.w3.org/2000/svg">
<path d="M12 16C13.2 12.322 14.526 10.995 18 10C14.526 9.005 13.2 7.678 12 4C10.8 7.678 9.474 9.005 6 10C9.474 10.995 10.8 12.322 12 16ZM4 7C4.6 5.16 5.263 4.497 7 4C5.263 3.503 4.6 2.84 4 1C3.4 2.84 2.737 3.503 1 4C2.737 4.497 3.4 5.16 4 7ZM5.5 17C5.8 16.08 6.131 15.749 7 15.5C6.131 15.251 5.8 14.92 5.5 14C5.2 14.92 4.869 15.251 4 15.5C4.869 15.749 5.2 16.08 5.5 17Z" stroke="#565D6D" stroke-width="2" stroke-linejoin="round"/>
</svg>
