<svg width="18" height="18" viewBox="0 0 18 18" fill="none" xmlns="http://www.w3.org/2000/svg">
<path d="M15.75 0C15.1763 0 14.6123 0.225 14.1795 0.657L6.75 8.0625L6.585 8.2275L6.54 8.46225L6.0225 11.0872L5.79 12.1882L6.89025 11.9557L9.51525 11.4382L9.75 11.3932L9.915 11.2282L17.3205 3.79875C17.6307 3.48751 17.8418 3.09144 17.9272 2.66043C18.0127 2.22943 17.9687 1.78277 17.8007 1.37673C17.6328 0.970697 17.3485 0.623442 16.9835 0.378715C16.6186 0.133989 16.1894 0.00273867 15.75 0.00149989V0ZM15.75 1.455C15.9263 1.455 16.098 1.545 16.266 1.71225C16.6005 2.04675 16.6005 2.40825 16.266 2.7435L9 10.008L7.71 10.266L7.96875 8.976L15.2347 1.71C15.402 1.54275 15.5737 1.45275 15.75 1.45275V1.455ZM0 2.9775L0 17.9775L15 17.9775L15 8.0865L13.5 9.5865L13.5 16.4775L1.5 16.4775L1.5 4.4775L8.391 4.4775L9.891 2.9775L0 2.9775Z" fill="#4443E4"/>
</svg>
