<svg width="24" height="24" viewBox="0 0 24 24" fill="none" xmlns="http://www.w3.org/2000/svg">
<path d="M10.5 17.5H12.8333V10.5H10.5V17.5ZM11.6667 8.16667C11.9972 8.16667 12.2745 8.05467 12.4985 7.83067C12.7225 7.60667 12.8341 7.32978 12.8333 7C12.8326 6.67022 12.7206 6.39333 12.4973 6.16933C12.2741 5.94533 11.9972 5.83333 11.6667 5.83333C11.3361 5.83333 11.0592 5.94533 10.836 6.16933C10.6128 6.39333 10.5008 6.67022 10.5 7C10.4992 7.32978 10.6112 7.60706 10.836 7.83183C11.0608 8.05661 11.3377 8.16822 11.6667 8.16667ZM11.6667 23.3333C10.0528 23.3333 8.53611 23.0269 7.11667 22.414C5.69722 21.8011 4.4625 20.9701 3.4125 19.9208C2.3625 18.8716 1.53145 17.6369 0.919335 16.2167C0.307224 14.7964 0.000779255 13.2798 1.47679e-06 11.6667C-0.000776301 10.0536 0.305668 8.53689 0.919335 7.11667C1.533 5.69644 2.36406 4.46172 3.4125 3.4125C4.46095 2.36328 5.69567 1.53222 7.11667 0.919333C8.53767 0.306445 10.0543 0 11.6667 0C13.279 0 14.7957 0.306445 16.2167 0.919333C17.6377 1.53222 18.8724 2.36328 19.9208 3.4125C20.9693 4.46172 21.8007 5.69644 22.4152 7.11667C23.0296 8.53689 23.3357 10.0536 23.3333 11.6667C23.331 13.2798 23.0246 14.7964 22.414 16.2167C21.8034 17.6369 20.9724 18.8716 19.9208 19.9208C18.8693 20.9701 17.6346 21.8015 16.2167 22.4152C14.7988 23.0288 13.2821 23.3349 11.6667 23.3333Z" fill="#4443E4"/>
</svg>
