<svg width="71" height="36" viewBox="0 0 71 36" fill="none" xmlns="http://www.w3.org/2000/svg">
<path d="M40.9902 23H35.4258L35.4258 13.0059L40.9902 13.0059V14.0313L36.5879 14.0312V17.2646H40.7373V18.2764H36.5879V21.9746H40.9902V23ZM45.7002 23.1367C44.7523 23.1367 44.0003 22.8132 43.4443 22.166C42.8929 21.5189 42.6172 20.5573 42.6172 19.2812C42.6172 17.9915 42.8997 17.0186 43.4648 16.3623C44.0299 15.7015 44.7819 15.3711 45.7207 15.3711C46.1172 15.3711 46.4635 15.4235 46.7598 15.5283C47.056 15.6331 47.3112 15.7744 47.5254 15.9521C47.7396 16.1253 47.9196 16.3236 48.0654 16.5469H48.1475C48.1292 16.4056 48.111 16.2119 48.0928 15.9658C48.0745 15.7197 48.0654 15.5192 48.0654 15.3643V12.3633H49.2002V23H48.2842L48.1133 21.9336H48.0654C47.9242 22.1569 47.7441 22.3597 47.5254 22.542C47.3112 22.7243 47.0537 22.8701 46.7529 22.9795C46.4567 23.0843 46.1058 23.1367 45.7002 23.1367ZM45.8779 22.1934C46.68 22.1934 47.2474 21.9655 47.5801 21.5098C47.9128 21.054 48.0791 20.3773 48.0791 19.4795V19.2744C48.0791 18.3219 47.9196 17.5905 47.6006 17.0801C47.2861 16.5697 46.7119 16.3145 45.8779 16.3145C45.1807 16.3145 44.6589 16.5833 44.3125 17.1211C43.9661 17.6543 43.793 18.3835 43.793 19.3086C43.793 20.2292 43.9639 20.9401 44.3057 21.4414C44.652 21.9427 45.1761 22.1934 45.8779 22.1934ZM52.7412 15.5078V23H51.6064V15.5078L52.7412 15.5078ZM52.1875 12.7051C52.3743 12.7051 52.5339 12.7666 52.666 12.8896C52.8027 13.0081 52.8711 13.195 52.8711 13.4502C52.8711 13.7008 52.8027 13.8877 52.666 14.0107C52.5339 14.1338 52.3743 14.1953 52.1875 14.1953C51.9915 14.1953 51.8275 14.1338 51.6953 14.0107C51.5677 13.8877 51.5039 13.7008 51.5039 13.4502C51.5039 13.195 51.5677 13.0081 51.6953 12.8896C51.8275 12.7666 51.9915 12.7051 52.1875 12.7051ZM57.5674 22.207C57.7542 22.207 57.9456 22.1911 58.1416 22.1592C58.3376 22.1273 58.4971 22.0885 58.6201 22.043V22.9248C58.488 22.984 58.3034 23.0342 58.0664 23.0752C57.834 23.1162 57.6061 23.1367 57.3828 23.1367C56.9863 23.1367 56.6263 23.0684 56.3027 22.9316C55.9792 22.7904 55.7194 22.5534 55.5234 22.2207C55.332 21.888 55.2363 21.4277 55.2363 20.8398V16.3965H54.1699V15.8428L55.2432 15.3984L55.6943 13.7715H56.3779V15.5078H58.5723V16.3965H56.3779V20.8057C56.3779 21.2751 56.485 21.626 56.6992 21.8584C56.918 22.0908 57.2074 22.207 57.5674 22.207Z" fill="#4443E4"/>
<path d="M25.9686 14.7122L23.2878 12.0308C23.1078 11.8507 22.8636 11.7495 22.6089 11.7495C22.3543 11.7495 22.11 11.8507 21.93 12.0308L14.5314 19.43C14.3506 19.6094 14.2492 19.8538 14.25 20.1086L14.25 22.79C14.25 23.3202 14.6798 23.75 15.21 23.75H17.8914C18.1462 23.7508 18.3906 23.6494 18.57 23.4686L25.9686 16.07C26.1487 15.8899 26.2499 15.6457 26.2499 15.3911C26.2499 15.1364 26.1487 14.8922 25.9686 14.7122ZM17.8914 22.79H15.21L15.21 20.1086L20.49 14.8286L23.1714 17.51L17.8914 22.79ZM23.85 16.8308L21.1686 14.15L22.6086 12.71L25.29 15.3908L23.85 16.8308Z" fill="#4443E4"/>
</svg>
