<svg width="31" height="31" viewBox="0 0 31 31" fill="none" xmlns="http://www.w3.org/2000/svg">
<path fill-rule="evenodd" clip-rule="evenodd" d="M15.1484 0.00141673H15.3099C18.581 0.00141673 21.1438 0.00141682 23.1441 0.270583C25.1898 0.545417 26.8048 1.12058 28.0727 2.38708C29.3406 3.655 29.9143 5.27 30.1892 7.31708C30.4583 9.316 30.4583 11.8787 30.4583 15.1498V15.2745C30.4583 17.9789 30.4583 20.1917 30.311 21.9937C30.1637 23.8071 29.8619 25.3187 29.1848 26.5767C28.8882 27.1301 28.5175 27.6292 28.0727 28.0741C26.8048 29.342 25.1898 29.9157 23.1427 30.1906C21.1438 30.4597 18.581 30.4597 15.3099 30.4597H15.1484C11.8773 30.4597 9.31458 30.4597 7.31425 30.1906C5.26858 29.9157 3.65358 29.3406 2.38567 28.0741C1.26225 26.9507 0.681417 25.5524 0.374 23.8156C0.0694167 22.1113 0.0141666 19.9906 0.0028333 17.3584C0.000944408 16.6879 0 15.9786 0 15.2306V15.1484C0 11.8773 8.44399e-08 9.31458 0.269167 7.31425C0.544 5.26858 1.11917 3.65358 2.38567 2.38567C3.65358 1.11775 5.26858 0.544 7.31567 0.269167C9.31458 8.44399e-08 11.8773 0 15.1484 0M7.59758 2.37433C5.78708 2.618 4.69483 3.08267 3.88875 3.88875C3.08125 4.69625 2.618 5.78708 2.37433 7.599C2.12783 9.44067 2.125 11.8603 2.125 15.2292V16.4248L3.54308 15.1838C4.1651 14.6393 4.97083 14.3516 5.79705 14.379C6.62326 14.4063 7.4082 14.7467 7.99283 15.3312L14.0703 21.4087C14.542 21.8802 15.1648 22.1702 15.8292 22.2278C16.4936 22.2853 17.157 22.1066 17.7027 21.7232L18.1248 21.4257C18.9121 20.8725 19.8637 20.6028 20.8241 20.6607C21.7845 20.7186 22.6968 21.1007 23.4118 21.7444L27.421 25.3527C27.8262 24.5055 28.0656 23.392 28.1931 21.8209C28.3319 20.1138 28.3333 17.986 28.3333 15.2292C28.3333 11.8603 28.3305 9.44067 28.084 7.599C27.8403 5.78708 27.3757 4.69483 26.5696 3.88733C25.7621 3.08125 24.6713 2.618 22.8593 2.37433C21.0177 2.12783 18.598 2.125 15.2292 2.125C11.8603 2.125 9.43925 2.12783 7.59758 2.37433Z" fill="#4443E4"/>
</svg>
