<svg width="12" height="12" viewBox="0 0 12 12" fill="none" xmlns="http://www.w3.org/2000/svg">
<path d="M11.7186 2.96266L9.0378 0.281255C8.85776 0.101173 8.61355 0 8.3589 0C8.10426 0 7.86005 0.101173 7.68 0.281255L0.281405 7.68045C0.100553 7.85987 -0.000809018 8.10431 4.86364e-06 8.35905L4.86364e-06 11.0405C4.86364e-06 11.5706 0.429811 12.0005 0.960005 12.0005L3.6414 12.0005C3.89615 12.0013 4.14059 11.8999 4.32 11.7191L11.7186 4.32046C11.8987 4.14041 11.9999 3.8962 11.9999 3.64155C11.9999 3.38691 11.8987 3.1427 11.7186 2.96266ZM3.6414 11.0405L0.960005 11.0405L0.960005 8.35905L6.24001 3.07905L8.9214 5.76045L3.6414 11.0405ZM9.6 5.08125L6.9186 2.40045L8.3586 0.960455L11.04 3.64125L9.6 5.08125Z" fill="#4443E4"/>
</svg>
