<svg width="267" height="267" viewBox="0 0 267 267" fill="none" xmlns="http://www.w3.org/2000/svg">
<path d="M133.5 12.744C133.5 5.37104 139.492 -0.67518 146.829 0.0607997C174.389 2.82576 200.532 14.115 221.523 32.5234C245.873 53.8785 261.63 83.3577 265.858 115.469C270.085 147.58 262.495 180.133 244.501 207.063C226.507 233.992 199.337 253.462 168.052 261.845C136.768 270.228 103.503 266.951 74.4545 252.627C45.4064 238.302 22.5565 213.905 10.1621 183.982C-2.23234 154.06 -3.32602 120.651 7.08482 89.9819C16.0591 63.5444 33.0546 40.6963 55.5405 24.5214C61.5258 20.2159 69.7385 22.4559 73.425 28.8411C77.1115 35.2263 74.8604 43.3282 68.9846 47.782C52.061 60.6099 39.2587 78.2644 32.3679 98.5643C24.0392 123.1 24.9141 149.826 34.8297 173.765C44.7452 197.703 63.0251 217.22 86.2636 228.68C109.502 240.14 136.114 242.761 161.142 236.055C186.17 229.349 207.906 213.773 222.301 192.229C236.696 170.685 242.768 144.643 239.386 118.954C236.004 93.265 223.399 69.6816 203.918 52.5975C187.801 38.4628 167.886 29.5747 146.816 26.9272C139.5 26.008 133.5 20.117 133.5 12.744Z" fill="#4443E4"/>
</svg>
