<svg width="36" height="31" viewBox="0 0 36 31" fill="none" xmlns="http://www.w3.org/2000/svg">
<path d="M7.6875 7.6875V10.25H28.1875V7.6875H7.6875ZM23.0625 17.9375V23.0753H28.1875V17.9375H23.0625ZM0 7.04688C0 5.17793 0.742437 3.38553 2.06398 2.06398C3.38553 0.742437 5.17793 0 7.04688 0H28.8281C30.6971 0 32.4895 0.742437 33.811 2.06398C35.1326 3.38553 35.875 5.17793 35.875 7.04688V23.7031C35.875 25.5721 35.1326 27.3645 33.811 28.686C32.4895 30.0076 30.6971 30.75 28.8281 30.75H7.04688C5.17793 30.75 3.38553 30.0076 2.06398 28.686C0.742437 27.3645 0 25.5721 0 23.7031V7.04688ZM5.125 6.40625V11.5312C5.125 11.8711 5.25999 12.1969 5.50027 12.4372C5.74055 12.6775 6.06644 12.8125 6.40625 12.8125H29.4688C29.8086 12.8125 30.1345 12.6775 30.3747 12.4372C30.615 12.1969 30.75 11.8711 30.75 11.5312V6.40625C30.75 6.06644 30.615 5.74055 30.3747 5.50027C30.1345 5.25999 29.8086 5.125 29.4688 5.125H6.40625C6.06644 5.125 5.74055 5.25999 5.50027 5.50027C5.25999 5.74055 5.125 6.06644 5.125 6.40625ZM20.5 16.6562V24.3566C20.5 24.6964 20.635 25.0223 20.8753 25.2625C21.1155 25.5028 21.4414 25.6378 21.7812 25.6378H29.4688C29.8086 25.6378 30.1345 25.5028 30.3747 25.2625C30.615 25.0223 30.75 24.6964 30.75 24.3566V16.6562C30.75 16.3164 30.615 15.9905 30.3747 15.7503C30.1345 15.51 29.8086 15.375 29.4688 15.375H21.7812C21.4414 15.375 21.1155 15.51 20.8753 15.7503C20.635 15.9905 20.5 16.3164 20.5 16.6562ZM6.40625 16.6562C6.06644 16.6562 5.74055 16.7912 5.50027 17.0315C5.25999 17.2718 5.125 17.5977 5.125 17.9375C5.125 18.2773 5.25999 18.6032 5.50027 18.8435C5.74055 19.0838 6.06644 19.2188 6.40625 19.2188H16.6562C16.9961 19.2188 17.3219 19.0838 17.5622 18.8435C17.8025 18.6032 17.9375 18.2773 17.9375 17.9375C17.9375 17.5977 17.8025 17.2718 17.5622 17.0315C17.3219 16.7912 16.9961 16.6562 16.6562 16.6562H6.40625ZM5.125 23.0625C5.125 23.4023 5.25999 23.7282 5.50027 23.9685C5.74055 24.2088 6.06644 24.3438 6.40625 24.3438H16.6562C16.9961 24.3438 17.3219 24.2088 17.5622 23.9685C17.8025 23.7282 17.9375 23.4023 17.9375 23.0625C17.9375 22.7227 17.8025 22.3968 17.5622 22.1565C17.3219 21.9162 16.9961 21.7812 16.6562 21.7812H6.40625C6.06644 21.7812 5.74055 21.9162 5.50027 22.1565C5.25999 22.3968 5.125 22.7227 5.125 23.0625Z" fill="#4443E4"/>
</svg>
