<svg width="4" height="15" viewBox="0 0 4 15" fill="none" xmlns="http://www.w3.org/2000/svg">
<path d="M1.66536 8.33325C2.1256 8.33325 2.4987 7.96016 2.4987 7.49992C2.4987 7.03968 2.1256 6.66659 1.66536 6.66659C1.20513 6.66659 0.832031 7.03968 0.832031 7.49992C0.832031 7.96016 1.20513 8.33325 1.66536 8.33325Z" stroke="#98A2B3" stroke-width="1.66667" stroke-linecap="round" stroke-linejoin="round"/>
<path d="M1.66536 2.49992C2.1256 2.49992 2.4987 2.12682 2.4987 1.66659C2.4987 1.20635 2.1256 0.833252 1.66536 0.833252C1.20513 0.833252 0.832031 1.20635 0.832031 1.66659C0.832031 2.12682 1.20513 2.49992 1.66536 2.49992Z" stroke="#98A2B3" stroke-width="1.66667" stroke-linecap="round" stroke-linejoin="round"/>
<path d="M1.66536 14.1666C2.1256 14.1666 2.4987 13.7935 2.4987 13.3333C2.4987 12.873 2.1256 12.4999 1.66536 12.4999C1.20513 12.4999 0.832031 12.873 0.832031 13.3333C0.832031 13.7935 1.20513 14.1666 1.66536 14.1666Z" stroke="#98A2B3" stroke-width="1.66667" stroke-linecap="round" stroke-linejoin="round"/>
</svg>
